# xmcd
#
# Track frame offsets:
#  150
#  16183
#  30220
#  47541
#  71323
#  85384
#  102180
#  118705
#  134897
#  160607
#  173698
#  192788
#  211584
#  228368
#  243414
#  259467
#  284027
#  302392
#  318022
#
# Disc length: 4759 seconds
#
# Revision: 0
# Processed by: cddbd v1.5.2PL0 Copyright (c) Steve Scherf et al.
# Submitted via: Collectorz.com_Music_Collector 6.11
#
DISCID=f3129513
DTITLE=Various Artist - Fetenhits - Best of 2002
DYEAR=2002
DGENRE=Dance
TTITLE0=Las Ketchup - Las Ketchup Song
TTITLE1=Raid Said Fred - Stand Up (For The Champions)
TTITLE2=Sophie Ellis Bextor - Murder On The Dancefloor
TTITLE3=Madhouse - Like A Prayer
TTITLE4=groove coverage - Moonlight Shadow
TTITLE5=Mark ´oh - Let This Party Never End
TTITLE6=Loona - Rhythm Of The Night
TTITLE7=DJ Ötzi - Today Is The Day
TTITLE8=The Partynator - I've Had The Time Of My Life
TTITLE9=Monkey Circus - La Bamba
TTITLE10=King Afrika - Mete-Mete
TTITLE11=Monica Naranjo - I Ain't Gonna Cry
TTITLE12=DJ Work - Time 2 Wonder
TTITLE13=Rocco - Everybody
TTITLE14=Aquagen - Hard To Say I'm Sorry
TTITLE15=Scooter - Nessaja
TTITLE16=Starsplash - Free
TTITLE17=DJ Nordkurve - Wahnsinn
TTITLE18=Anonyme Plattendreher - Er gehort zu mir
EXTD=
EXTT0=
EXTT1=
EXTT2=
EXTT3=
EXTT4=
EXTT5=
EXTT6=
EXTT7=
EXTT8=
EXTT9=
EXTT10=
EXTT11=
EXTT12=
EXTT13=
EXTT14=
EXTT15=
EXTT16=
EXTT17=
EXTT18=
PLAYORDER=
